<svg width="650" height="458" viewBox="0 0 650 458" fill="none" xmlns="http://www.w3.org/2000/svg">
<path d="M649.72 444.1C649.72 451.25 643.92 457.05 636.77 457.05C632.47 457.05 628.66 454.96 626.31 451.73L624.71 448.82L511.38 242.25H456.13C448.91 361.82 349.66 456.55 228.28 456.55C106.9 456.55 0 354.35 0 228.27C0 102.19 102.2 0 228.28 0C270.6 0 310.24 11.52 344.23 31.59C345.58 32.39 346.91 33.21 348.24 34.03C351.27 36.64 353.18 40.51 353.18 44.83C353.18 52.7 346.8 59.08 338.92 59.08C336.53 59.08 334.29 58.5 332.31 57.46C331.84 57.17 331.36 56.88 330.88 56.6C300.86 38.66 265.77 28.35 228.27 28.35C117.65 28.35 27.98 118.02 27.98 228.64C27.98 339.26 117.65 428.93 228.27 428.93C338.89 428.93 421.1 346.53 428.11 242.26H228.27C221.29 242.26 215.64 236.6 215.64 229.63C215.64 222.66 221.29 217 228.27 217H537.7C581.66 217 617.31 181.36 617.31 137.39C617.31 93.42 581.94 58.06 538.22 57.79C538.05 57.79 537.88 57.79 537.71 57.79C537.54 57.79 537.36 57.79 537.2 57.79H437.56C430.34 57.79 424.48 51.99 424.48 44.84C424.48 37.69 430.33 31.89 437.56 31.89H540.14C540.5 31.89 540.87 31.89 541.24 31.89C599.42 31.89 646.58 79.05 646.58 137.23C646.58 195.41 599.42 242.58 541.24 242.58H540.86L647.23 436.45L648.86 439.42C649.43 440.88 649.74 442.46 649.74 444.11L649.72 444.1Z" fill="#CB0612"/>
</svg>
