<svg width="23" height="23" viewBox="0 0 23 23" fill="none" xmlns="http://www.w3.org/2000/svg">
<path d="M6.375 0.75C7.01029 0.74898 7.63297 0.927288 8.17143 1.26442C8.70988 1.60155 9.14226 2.08381 9.41882 2.65574C9.69539 3.22767 9.80491 3.86605 9.7348 4.49746C9.66469 5.12887 9.41779 5.72767 9.0225 6.225C9.4725 6.3825 9.9 6.63 10.2675 6.96L10.41 7.1025L12.3 9H22.5V10.5H21V21C21.0011 21.3791 20.8586 21.7445 20.6012 22.0228C20.3437 22.3011 19.9905 22.4716 19.6125 22.5H3C2.62092 22.5011 2.2555 22.3586 1.97721 22.1012C1.69893 21.8437 1.52843 21.4905 1.5 21.1125V10.5H0V9H1.575C1.69797 8.40351 1.96437 7.84595 2.35117 7.37552C2.73797 6.90509 3.23353 6.53594 3.795 6.3C3.38062 5.80832 3.11531 5.2085 3.03031 4.57113C2.94532 3.93376 3.04416 3.28538 3.31522 2.70229C3.58628 2.1192 4.01826 1.62568 4.56033 1.27982C5.1024 0.93395 5.73199 0.750133 6.375 0.75ZM11.685 10.5H3V21H19.5V10.5H13.8075L16.2825 12.975L15.2175 14.025L11.685 10.5ZM6.375 2.25C5.94151 2.24646 5.52018 2.39324 5.18273 2.66536C4.84527 2.93748 4.61253 3.31813 4.52411 3.74252C4.4357 4.16692 4.49707 4.60884 4.69779 4.99308C4.8985 5.37732 5.22616 5.68014 5.625 5.85V7.5H5.25C4.78451 7.49976 4.3304 7.64389 3.95026 7.91254C3.57012 8.18119 3.28266 8.56113 3.1275 9H10.185L9.345 8.16C8.95973 7.77548 8.44812 7.54365 7.905 7.5075L7.755 7.5H7.125V5.85C7.52384 5.68014 7.8515 5.37732 8.05221 4.99308C8.25293 4.60884 8.3143 4.16692 8.22589 3.74252C8.13747 3.31813 7.90473 2.93748 7.56727 2.66536C7.22982 2.39324 6.80849 2.24646 6.375 2.25ZM17.9925 0C17.8887 1.13782 17.4144 2.21016 16.6425 3.0525L16.305 3.3975C15.2567 4.52026 14.6241 5.96796 14.5125 7.5H13.0125C13.1307 5.48595 13.9848 3.58553 15.4125 2.16C15.9972 1.57801 16.3718 0.818172 16.4775 0H17.9925ZM19.4925 0H20.9925C20.875 2.01422 20.0208 3.91487 18.5925 5.34C18.011 5.92338 17.6392 6.68294 17.535 7.5H16.035C16.1409 6.36495 16.615 5.29565 17.385 4.455L17.715 4.1025C18.7584 2.97797 19.3856 1.5303 19.4925 0Z" fill="#222222"/>
</svg>
