<svg width="2190" height="458" viewBox="0 0 2190 458" fill="none" xmlns="http://www.w3.org/2000/svg">
<path d="M649.72 444.1C649.72 451.25 643.92 457.05 636.77 457.05C632.47 457.05 628.66 454.96 626.31 451.73L624.71 448.82L511.38 242.25H456.13C448.91 361.82 349.66 456.55 228.28 456.55C106.9 456.55 0 354.35 0 228.27C0 102.19 102.2 0 228.28 0C270.6 0 310.24 11.52 344.23 31.59C345.58 32.39 346.91 33.21 348.24 34.03C351.27 36.64 353.18 40.51 353.18 44.83C353.18 52.7 346.8 59.08 338.92 59.08C336.53 59.08 334.29 58.5 332.31 57.46C331.84 57.17 331.36 56.88 330.88 56.6C300.86 38.66 265.77 28.35 228.27 28.35C117.65 28.35 27.98 118.02 27.98 228.64C27.98 339.26 117.65 428.93 228.27 428.93C338.89 428.93 421.1 346.53 428.11 242.26H228.27C221.29 242.26 215.64 236.6 215.64 229.63C215.64 222.66 221.29 217 228.27 217H537.7C581.66 217 617.31 181.36 617.31 137.39C617.31 93.42 581.94 58.06 538.22 57.79C538.05 57.79 537.88 57.79 537.71 57.79C537.54 57.79 537.36 57.79 537.2 57.79H437.56C430.34 57.79 424.48 51.99 424.48 44.84C424.48 37.69 430.33 31.89 437.56 31.89H540.14C540.5 31.89 540.87 31.89 541.24 31.89C599.42 31.89 646.58 79.05 646.58 137.23C646.58 195.41 599.42 242.58 541.24 242.58H540.86L647.23 436.45L648.86 439.42C649.43 440.88 649.74 442.46 649.74 444.11L649.72 444.1Z" fill="#CB0612"/>
<path d="M787.44 78.1396H832.86C840.09 78.1396 845.68 79.7697 849.64 83.0397C853.6 86.3097 856.26 90.8997 857.64 96.7997C859.02 102.71 859.71 110.25 859.71 119.43C859.71 127.8 858.62 134.34 856.44 139.04C854.26 143.74 850.48 147.01 845.08 148.85C849.55 149.77 852.79 152.01 854.8 155.56C856.81 159.12 857.81 163.93 857.81 170.01L857.47 225.93H828.56V168.12C828.56 163.99 827.76 161.35 826.15 160.21C824.54 159.06 821.62 158.49 817.38 158.49V225.94H787.44V78.1396ZM824.6 132.86C828.73 132.86 830.79 128.39 830.79 119.44C830.79 115.54 830.62 112.62 830.27 110.66C829.93 108.71 829.29 107.36 828.38 106.62C827.46 105.88 826.14 105.5 824.42 105.5H817.54V132.86H824.59H824.6Z" fill="black"/>
<path d="M871.83 217.6C868.22 211.12 866.41 201.86 866.41 189.81C866.41 179.95 867.7 172.38 870.28 167.1C872.86 161.83 876.44 157.95 881.03 155.49C885.62 153.02 892.61 150.3 902.02 147.32L910.28 144.57V131.67C910.28 128.34 909.62 125.79 908.3 124.01C906.98 122.23 905.4 121.34 903.57 121.34C901.96 121.34 900.56 122.09 899.35 123.58C898.15 125.07 897.54 127.08 897.54 129.6V137.17H868.29V133.04C868.29 120.65 871.19 111.82 876.98 106.54C882.77 101.26 892.21 98.6299 905.28 98.6299C915.72 98.6299 924.21 101.36 930.74 106.8C937.28 112.25 940.55 119.96 940.55 129.94V225.95H910.61V210.98C909.12 216.14 906.74 220.16 903.47 223.02C900.2 225.89 896.33 227.32 891.86 227.32C882.11 227.32 875.43 224.08 871.81 217.6H871.83ZM908.65 201.08C909.62 199.19 910.11 196.86 910.11 194.11V159.01C905.64 160.73 902.34 162.91 900.22 165.55C898.1 168.19 897.04 171.86 897.04 176.56V192.73C897.04 200.19 899.28 203.91 903.75 203.91C906.04 203.91 907.68 202.96 908.65 201.07V201.08Z" fill="black"/>
<path d="M952.09 99.9996H982.2V116C983.46 110.84 985.64 106.65 988.74 103.44C991.84 100.23 995.97 98.6196 1001.13 98.6196C1009.62 98.6196 1015.9 101.23 1019.97 106.45C1024.04 111.67 1026.08 119.1 1026.08 128.73V225.94H996.49V131.83C996.49 129.08 995.94 126.73 994.86 124.78C993.77 122.83 992.08 121.85 989.78 121.85C986.68 121.85 984.64 123.26 983.67 126.07C982.69 128.88 982.21 132.64 982.21 137.34V225.95H952.1V99.9996H952.09Z" fill="black"/>
<path d="M1046.03 216.82C1039.95 209.82 1036.91 199.1 1036.91 184.65V145.77C1036.91 134.87 1038.09 126.01 1040.44 119.19C1042.79 112.37 1046.75 107.23 1052.31 103.79C1057.87 100.35 1065.59 98.6299 1075.45 98.6299C1086.23 98.6299 1095.01 101.44 1101.77 107.06C1108.54 112.68 1111.92 120.54 1111.92 130.63V149.9H1081.29V132.18C1081.29 128.85 1080.83 126.3 1079.91 124.52C1078.99 122.74 1077.21 121.85 1074.58 121.85C1069.65 121.85 1067.18 125.35 1067.18 132.35V193.43C1067.18 196.3 1067.78 198.74 1068.99 200.74C1070.19 202.75 1072 203.75 1074.41 203.75C1076.82 203.75 1078.62 202.78 1079.83 200.82C1081.04 198.87 1081.58 196.35 1081.46 193.25L1081.29 172.09H1111.92V194.11C1111.92 204.43 1108.57 212.55 1101.85 218.46C1095.14 224.37 1086.45 227.32 1075.78 227.32C1062.02 227.32 1052.09 223.82 1046.01 216.82H1046.03Z" fill="black"/>
<path d="M1122.42 77.2798H1153.39V112.38C1156.6 103.2 1162.74 98.6198 1171.8 98.6198C1180.29 98.6198 1186.71 101.32 1191.07 106.71C1195.43 112.1 1197.61 119.5 1197.61 128.91V225.95H1167.5V130.8C1167.5 128.05 1166.87 125.81 1165.61 124.09C1164.35 122.37 1162.51 121.51 1160.1 121.51C1158.03 121.51 1156.4 122.4 1155.2 124.18C1154 125.96 1153.39 128.11 1153.39 130.63V225.95H1122.42V77.2898V77.2798Z" fill="black"/>
<path d="M1208.28 188.26V137.68C1208.28 125.75 1211.64 116.26 1218.35 109.2C1225.06 102.15 1234.26 98.6196 1245.97 98.6196C1257.68 98.6196 1266.87 102.15 1273.58 109.2C1280.29 116.25 1283.65 125.75 1283.65 137.68V188.26C1283.65 214.3 1271.09 227.32 1245.97 227.32C1220.85 227.32 1208.29 214.3 1208.29 188.26H1208.28ZM1251.29 201.51C1252.44 199.79 1253.01 197.44 1253.01 194.46V132.86C1253.01 125.52 1250.66 121.85 1245.96 121.85C1241.26 121.85 1238.91 125.52 1238.91 132.86V194.46C1238.91 197.44 1239.48 199.79 1240.63 201.51C1241.78 203.23 1243.56 204.09 1245.96 204.09C1248.36 204.09 1250.14 203.23 1251.29 201.51Z" fill="black"/>
<path d="M1341.62 217.34C1335.66 210.69 1332.67 199.96 1332.67 185.17V170.72H1361.75V189.13C1361.75 196.47 1364.1 200.14 1368.8 200.14C1371.44 200.14 1373.27 199.37 1374.31 197.82C1375.34 196.27 1375.86 193.66 1375.86 189.99C1375.86 185.17 1375.28 181.19 1374.14 178.03C1372.99 174.88 1371.53 172.24 1369.75 170.12C1367.97 168 1364.79 164.7 1360.2 160.23L1347.47 147.5C1337.6 137.87 1332.67 127.2 1332.67 115.5C1332.67 102.88 1335.57 93.28 1341.36 86.68C1347.15 80.09 1355.61 76.79 1366.74 76.79C1380.05 76.79 1389.62 80.32 1395.47 87.37C1401.32 94.42 1404.24 105.47 1404.24 120.49H1374.13L1373.96 110.34C1373.96 108.39 1373.41 106.84 1372.33 105.69C1371.24 104.55 1369.72 103.97 1367.77 103.97C1365.47 103.97 1363.75 104.6 1362.61 105.86C1361.46 107.12 1360.89 108.84 1360.89 111.02C1360.89 115.84 1363.64 120.83 1369.15 125.99L1386.35 142.51C1390.36 146.41 1393.69 150.11 1396.33 153.61C1398.97 157.11 1401.09 161.24 1402.7 166C1404.3 170.76 1405.11 176.41 1405.11 182.95C1405.11 197.52 1402.44 208.56 1397.11 216.07C1391.78 223.58 1382.97 227.34 1370.7 227.34C1357.28 227.34 1347.59 224.01 1341.62 217.36V217.34Z" fill="black"/>
<path d="M1417.24 217.6C1413.63 211.12 1411.82 201.86 1411.82 189.81C1411.82 179.95 1413.11 172.38 1415.69 167.1C1418.27 161.83 1421.86 157.95 1426.44 155.49C1431.03 153.02 1438.02 150.3 1447.43 147.32L1455.69 144.57V131.67C1455.69 128.34 1455.03 125.79 1453.71 124.01C1452.39 122.23 1450.81 121.34 1448.98 121.34C1447.37 121.34 1445.97 122.09 1444.76 123.58C1443.56 125.07 1442.95 127.08 1442.95 129.6V137.17H1413.7V133.04C1413.7 120.65 1416.59 111.82 1422.39 106.54C1428.18 101.26 1437.62 98.6299 1450.69 98.6299C1461.13 98.6299 1469.62 101.36 1476.15 106.8C1482.69 112.25 1485.96 119.96 1485.96 129.94V225.95H1456.02V210.98C1454.53 216.14 1452.15 220.16 1448.88 223.02C1445.61 225.89 1441.74 227.32 1437.27 227.32C1427.52 227.32 1420.84 224.08 1417.23 217.6H1417.24ZM1454.06 201.08C1455.03 199.19 1455.52 196.86 1455.52 194.11V159.01C1451.05 160.73 1447.75 162.91 1445.63 165.55C1443.51 168.19 1442.45 171.86 1442.45 176.56V192.73C1442.45 200.19 1444.69 203.91 1449.16 203.91C1451.45 203.91 1453.09 202.96 1454.06 201.07V201.08Z" fill="black"/>
<path d="M1497.5 99.9996H1527.61V116C1528.87 110.84 1531.05 106.65 1534.15 103.44C1537.25 100.23 1541.38 98.6196 1546.54 98.6196C1555.03 98.6196 1561.31 101.23 1565.38 106.45C1569.45 111.67 1571.49 119.1 1571.49 128.73V225.94H1541.89V131.83C1541.89 129.08 1541.34 126.73 1540.26 124.78C1539.17 122.83 1537.48 121.85 1535.18 121.85C1532.08 121.85 1530.05 123.26 1529.07 126.07C1528.09 128.88 1527.61 132.64 1527.61 137.34V225.95H1497.5V99.9996Z" fill="black"/>
<path d="M1638.59 223.36C1633.08 220.72 1628.75 216.85 1625.6 211.75C1622.44 206.65 1620.87 200.48 1620.87 193.25V156.26H1649.95V191.53C1649.95 194.17 1650.49 196.26 1651.58 197.81C1652.67 199.36 1654.36 200.13 1656.66 200.13C1658.84 200.13 1660.47 199.41 1661.57 197.98C1662.66 196.55 1663.2 194.51 1663.2 191.87V78.1396H1692.97V188.94C1692.97 196.63 1691.45 203.37 1688.41 209.16C1685.37 214.95 1681.12 219.43 1675.68 222.58C1670.23 225.74 1664.01 227.31 1657.01 227.31C1650.01 227.31 1644.1 225.99 1638.6 223.35L1638.59 223.36Z" fill="black"/>
<path d="M1702.76 188.26V137.68C1702.76 125.75 1706.12 116.26 1712.83 109.2C1719.54 102.15 1728.75 98.6196 1740.45 98.6196C1752.15 98.6196 1761.35 102.15 1768.06 109.2C1774.77 116.25 1778.13 125.75 1778.13 137.68V188.26C1778.13 214.3 1765.57 227.32 1740.45 227.32C1715.33 227.32 1702.77 214.3 1702.77 188.26H1702.76ZM1745.77 201.51C1746.92 199.79 1747.49 197.44 1747.49 194.46V132.86C1747.49 125.52 1745.14 121.85 1740.44 121.85C1735.74 121.85 1733.39 125.52 1733.39 132.86V194.46C1733.39 197.44 1733.96 199.79 1735.11 201.51C1736.26 203.23 1738.03 204.09 1740.44 204.09C1742.85 204.09 1744.62 203.23 1745.77 201.51Z" fill="black"/>
<path d="M1792.14 217.6C1788.53 211.12 1786.72 201.86 1786.72 189.81C1786.72 179.95 1788.01 172.38 1790.59 167.1C1793.17 161.83 1796.76 157.95 1801.34 155.49C1805.93 153.02 1812.92 150.3 1822.33 147.32L1830.59 144.57V131.67C1830.59 128.34 1829.93 125.79 1828.61 124.01C1827.29 122.23 1825.71 121.34 1823.88 121.34C1822.27 121.34 1820.87 122.09 1819.66 123.58C1818.46 125.07 1817.85 127.08 1817.85 129.6V137.17H1788.6V133.04C1788.6 120.65 1791.49 111.82 1797.29 106.54C1803.08 101.26 1812.52 98.6299 1825.59 98.6299C1836.03 98.6299 1844.52 101.36 1851.05 106.8C1857.59 112.25 1860.86 119.96 1860.86 129.94V225.95H1830.92V210.98C1829.43 216.14 1827.05 220.16 1823.78 223.02C1820.51 225.89 1816.64 227.32 1812.17 227.32C1802.42 227.32 1795.74 224.08 1792.13 217.6H1792.14ZM1828.96 201.08C1829.93 199.19 1830.42 196.86 1830.42 194.11V159.01C1825.95 160.73 1822.65 162.91 1820.53 165.55C1818.41 168.19 1817.35 171.86 1817.35 176.56V192.73C1817.35 200.19 1819.59 203.91 1824.06 203.91C1826.35 203.91 1827.99 202.96 1828.96 201.07V201.08Z" fill="black"/>
<path d="M1915.59 218.37C1913.64 221.01 1911.2 223.16 1908.28 224.82C1905.35 226.48 1902.06 227.31 1898.39 227.31C1890.59 227.31 1884.74 225.62 1880.84 222.23C1876.94 218.85 1874.39 214.26 1873.18 208.46C1871.98 202.67 1871.37 195.01 1871.37 185.49V135.59C1871.37 124.01 1873.32 114.94 1877.22 108.41C1881.12 101.87 1887.89 98.6001 1897.52 98.6001C1905.2 98.6001 1911.23 101.3 1915.58 106.69V99.9801H1946.21V251.05H1915.58V218.36L1915.59 218.37ZM1914.13 200.39C1915.1 198.04 1915.59 194.74 1915.59 190.5V135.27C1915.59 126.55 1913.24 122.19 1908.54 122.19C1905.67 122.19 1903.84 123.37 1903.03 125.72C1902.23 128.07 1901.83 131.37 1901.83 135.61V189.12C1901.83 193.94 1902.23 197.61 1903.03 200.13C1903.83 202.65 1905.61 203.92 1908.36 203.92C1911.11 203.92 1913.15 202.74 1914.12 200.39H1914.13Z" fill="black"/>
<path d="M1963.34 218.89C1959.84 213.27 1958.09 204.9 1958.09 193.77V100H1988.37V194.2C1988.37 197.7 1988.91 200.17 1990.01 201.6C1991.1 203.04 1992.79 203.75 1995.09 203.75C1998.19 203.75 2000.14 202.46 2000.94 199.88C2001.74 197.3 2002.14 193.6 2002.14 188.78V187.75L2002.31 100H2032.25V225.95H2002.14V212.53C2000.08 217.81 1997.67 221.59 1994.91 223.89C1992.16 226.18 1988.08 227.33 1982.69 227.33C1973.28 227.33 1966.83 224.52 1963.33 218.9L1963.34 218.89Z" fill="black"/>
<path d="M2038.44 95.5199V76.7699L2078.36 58.3599V87.6099L2038.44 95.5199ZM2043.43 225.94V99.9899H2073.54V225.94H2043.43Z" fill="black"/>
<path d="M2084.72 99.9996H2114.83V116C2116.09 110.84 2118.27 106.65 2121.37 103.44C2124.47 100.23 2128.6 98.6196 2133.76 98.6196C2142.25 98.6196 2148.53 101.23 2152.6 106.45C2156.67 111.67 2158.71 119.1 2158.71 128.73V225.94H2129.11V131.83C2129.11 129.08 2128.56 126.73 2127.48 124.78C2126.39 122.83 2124.7 121.85 2122.4 121.85C2119.3 121.85 2117.27 123.26 2116.29 126.07C2115.31 128.88 2114.83 132.64 2114.83 137.34V225.95H2084.72V99.9996Z" fill="black"/>
<path d="M798.7 387.51H823.86L822.5 397.32H786.72V334.56H798.71V387.51H798.7Z" fill="black"/>
<path d="M862 382.79H841.2L837.29 397.32H824.85L844.38 334.56H859.18L878.62 397.32H865.91L862 382.79ZM859.64 373.71L851.56 343.74L843.57 373.71H859.65H859.64Z" fill="black"/>
<path d="M950.63 339.83L944.55 346.91C940.92 344 937.19 342.46 932.92 342.46C924.2 342.46 917.48 348.82 917.48 365.8C917.48 382.78 924.02 389.05 932.92 389.05C938.37 389.05 942.09 386.69 945.73 383.96L951.36 391.04C947.55 394.94 941.01 398.67 932.47 398.67C916.21 398.67 904.86 387.14 904.86 365.79C904.86 344.44 916.85 333.19 932.29 333.19C940.28 333.19 945.46 335.55 950.64 339.82L950.63 339.83Z" fill="black"/>
<path d="M989.23 382.79H968.43L964.53 397.32H952.09L971.62 334.56H986.42L1005.86 397.32H993.14L989.23 382.79ZM986.86 373.71L978.78 343.74L970.79 373.71H986.87H986.86Z" fill="black"/>
<path d="M1051.62 340.92L1045.72 347.73C1041.18 344.01 1036.82 342.37 1031.64 342.37C1026.01 342.37 1021.92 344.91 1021.92 349.82C1021.92 354.36 1024.37 356.36 1034.82 359.63C1045.81 363.08 1053.44 367.62 1053.44 379.43C1053.44 391.24 1044.63 398.68 1029.65 398.68C1019.66 398.68 1012.21 395.14 1007.04 390.05L1013.22 383.15C1017.85 387.05 1022.85 389.42 1029.39 389.42C1035.93 389.42 1040.92 386.15 1040.92 380.07C1040.92 374.8 1038.29 372.44 1028.48 369.44C1015.31 365.35 1009.59 360.09 1009.59 350.55C1009.59 340.11 1018.58 333.2 1030.93 333.2C1040.1 333.2 1046.19 335.92 1051.64 340.92H1051.62Z" fill="black"/>
<path d="M1092.57 382.79H1071.77L1067.86 397.32H1055.42L1074.95 334.56H1089.75L1109.19 397.32H1096.47L1092.57 382.79ZM1090.21 373.71L1082.13 343.74L1074.14 373.71H1090.22H1090.21Z" fill="black"/>
<path d="M1186.47 365.62C1186.47 391.05 1170.94 397.32 1155.96 397.32H1138.88V334.56H1154.32C1170.85 334.56 1186.47 339.65 1186.47 365.62ZM1150.87 343.55V388.33H1156.77C1166.12 388.33 1173.84 384.15 1173.84 365.62C1173.84 347.09 1165.67 343.55 1156.4 343.55H1150.86H1150.87Z" fill="black"/>
<path d="M1232.88 343.46H1209.72V360.99H1229.88V369.89H1209.72V388.33H1234.51V397.32H1197.73V334.56H1234.15L1232.88 343.46Z" fill="black"/>
<path d="M1257.85 387.51H1283.01L1281.65 397.32H1245.87V334.56H1257.86V387.51H1257.85Z" fill="black"/>
<path d="M1359.65 379.25C1359.65 393.06 1348.66 397.32 1333.4 397.32H1314.51V334.56H1330.95C1347.12 334.56 1356.92 339.1 1356.92 350.54C1356.92 358.35 1351.29 362.8 1345.29 364.07C1352.46 365.43 1359.64 368.79 1359.64 379.24L1359.65 379.25ZM1326.5 343.37V360.35H1333.86C1340.4 360.35 1344.67 357.44 1344.67 351.54C1344.67 345.18 1340.31 343.37 1332.14 343.37H1326.51H1326.5ZM1347.12 378.79C1347.12 371.25 1341.76 368.71 1334.77 368.71H1326.51V388.33H1333.5C1341.4 388.33 1347.12 386.69 1347.12 378.79Z" fill="black"/>
<path d="M1389.8 372.16H1382.17V397.32H1370.18V334.56H1388.89C1405.33 334.56 1413.77 340.55 1413.77 353C1413.77 361.54 1409.59 366.62 1401.05 369.98L1417.49 397.32H1403.68L1389.78 372.16H1389.8ZM1382.17 363.53H1389.62C1397.07 363.53 1401.25 360.53 1401.25 353C1401.25 346.19 1397.34 343.28 1388.63 343.28H1382.18V363.53H1382.17Z" fill="black"/>
<path d="M1455 382.79H1434.2L1430.29 397.32H1417.85L1437.38 334.56H1452.18L1471.62 397.32H1458.9L1455 382.79ZM1452.64 373.71L1444.56 343.74L1436.57 373.71H1452.65H1452.64Z" fill="black"/>
<path d="M1524.93 397.32H1509.4L1487.88 346.55C1488.52 352.09 1489.52 360.08 1489.52 371.71V397.32H1478.62V334.56H1493.79L1515.68 385.42C1515.14 381.97 1514.05 372.89 1514.05 363.99V334.56H1524.95V397.32H1524.93Z" fill="black"/>
<path d="M1584.96 340.56L1578.51 347.28C1574.24 343.92 1570.7 342.28 1565.34 342.28C1556.44 342.28 1548.81 349 1548.81 365.89C1548.81 382.78 1553.9 389.5 1563.7 389.5C1567.24 389.5 1570.69 388.77 1573.69 387.05V370.7H1564.25L1562.98 361.8H1585.5V392.5C1579.23 396.31 1571.79 398.68 1563.89 398.68C1546 398.68 1536.19 387.42 1536.19 365.89C1536.19 344.36 1549.27 333.2 1564.98 333.2C1573.7 333.2 1579.69 336.11 1584.96 340.56Z" fill="black"/>
<path d="M1643.35 376.79C1643.35 389.41 1635.27 398.68 1619.92 398.68C1604.57 398.68 1596.67 389.69 1596.67 376.79V334.56H1608.66V376.16C1608.66 384.97 1612.2 389.33 1619.92 389.33C1627.64 389.33 1631.27 384.97 1631.27 376.16V334.56H1643.35V376.79Z" fill="black"/>
<path d="M1695.38 340.92L1689.48 347.73C1684.94 344.01 1680.58 342.37 1675.4 342.37C1669.77 342.37 1665.68 344.91 1665.68 349.82C1665.68 354.36 1668.13 356.36 1678.58 359.63C1689.57 363.08 1697.2 367.62 1697.2 379.43C1697.2 391.24 1688.39 398.68 1673.4 398.68C1663.41 398.68 1655.96 395.14 1650.79 390.05L1656.97 383.15C1661.6 387.05 1666.6 389.42 1673.14 389.42C1679.68 389.42 1684.67 386.15 1684.67 380.07C1684.67 374.8 1682.04 372.44 1672.23 369.44C1659.06 365.35 1653.34 360.09 1653.34 350.55C1653.34 340.11 1662.33 333.2 1674.68 333.2C1683.85 333.2 1689.94 335.92 1695.39 340.92H1695.38Z" fill="black"/>
<path d="M1777.75 365.62C1777.75 391.05 1762.22 397.32 1747.24 397.32H1730.16V334.56H1745.6C1762.13 334.56 1777.75 339.65 1777.75 365.62ZM1742.15 343.55V388.33H1748.05C1757.4 388.33 1765.12 384.15 1765.12 365.62C1765.12 347.09 1756.95 343.55 1747.68 343.55H1742.14H1742.15Z" fill="black"/>
<path d="M1824.15 343.46H1800.99V360.99H1821.15V369.89H1800.99V388.33H1825.78V397.32H1789V334.56H1825.42L1824.15 343.46Z" fill="black"/>
<path d="M1919.33 397.32H1907.61L1905.98 371.07C1905.43 361.81 1904.98 352.09 1905.16 345.46L1893.72 390.51H1882.37L1870.2 345.37C1870.56 353.82 1870.38 362.44 1869.84 371.44L1868.3 397.32H1856.67L1861.66 334.56H1877.1L1888.27 378.52L1898.81 334.56H1914.43L1919.33 397.32Z" fill="black"/>
<path d="M1966 343.46H1942.84V360.99H1963V369.89H1942.84V388.33H1967.63V397.32H1930.85V334.56H1967.27L1966 343.46ZM1961.19 321.39L1940.39 328.93L1937.39 322.94L1956.64 312.31L1961.18 321.39H1961.19Z" fill="black"/>
<path d="M2022.76 397.32H2009.41L1996.88 371.62L1984.44 397.32H1971.63L1989.79 363.9L1973.08 334.57H1986.43L1997.06 356.28L2008.14 334.57H2020.95L2004.15 363.45L2022.77 397.33L2022.76 397.32Z" fill="black"/>
<path d="M2042.01 397.32H2030.02V334.56H2042.01V397.32Z" fill="black"/>
<path d="M2099.04 339.83L2092.95 346.91C2089.32 344 2085.59 342.46 2081.32 342.46C2072.6 342.46 2065.88 348.82 2065.88 365.8C2065.88 382.78 2072.42 389.05 2081.32 389.05C2086.77 389.05 2090.49 386.69 2094.13 383.96L2099.76 391.04C2095.95 394.94 2089.41 398.67 2080.87 398.67C2064.61 398.67 2053.26 387.14 2053.26 365.79C2053.26 344.44 2065.25 333.19 2080.69 333.19C2088.68 333.19 2093.86 335.55 2099.04 339.82V339.83Z" fill="black"/>
<path d="M2157.98 365.9C2157.98 386.61 2147.35 398.69 2130.55 398.69C2113.75 398.69 2103.03 386.98 2103.03 366C2103.03 345.02 2113.75 333.21 2130.55 333.21C2147.35 333.21 2157.98 344.93 2157.98 365.9ZM2115.66 365.99C2115.66 382.88 2121.38 389.51 2130.55 389.51C2139.72 389.51 2145.35 382.88 2145.35 365.9C2145.35 348.92 2139.99 342.38 2130.55 342.38C2121.11 342.38 2115.66 349.1 2115.66 365.99Z" fill="black"/>
<path d="M786.71 279.95C1019.3 269.25 1255.1 266.95 1488.01 266.55C1721.01 267.14 1956.61 269.22 2189.31 279.95V281.53C1868.43 282.28 1459.59 282.41 1137.36 282.05C1050.2 282.03 873.92 281.78 786.71 281.53V279.95Z" fill="#CB0612"/>
</svg>
