<svg width="21" height="21" viewBox="0 0 21 21" fill="none" xmlns="http://www.w3.org/2000/svg">
<path d="M19.5 0C19.8978 0 20.2794 0.158035 20.5607 0.43934C20.842 0.720644 21 1.10218 21 1.5V19.5C21 19.8978 20.842 20.2794 20.5607 20.5607C20.2794 20.842 19.8978 21 19.5 21H1.5C1.10218 21 0.720644 20.842 0.43934 20.5607C0.158035 20.2794 0 19.8978 0 19.5V1.5C0 1.10218 0.158035 0.720644 0.43934 0.43934C0.720644 0.158035 1.10218 0 1.5 0H19.5ZM19.5 1.5H1.5V13.125H1.6425C1.92 13.095 2.1825 12.9975 2.3925 12.84L2.4975 12.7575C3.04837 12.2661 3.7618 11.9962 4.5 12C5.2425 12 5.9625 12.2625 6.5025 12.75C6.765 12.9975 7.125 13.125 7.5 13.125C7.875 13.125 8.235 12.9975 8.4975 12.75C9.0491 12.2607 9.76266 11.9934 10.5 12C11.2425 12 11.9625 12.2625 12.5025 12.75C12.765 12.9975 13.125 13.125 13.5 13.125C13.875 13.125 14.235 12.9975 14.4975 12.75C15.0495 12.2613 15.7628 11.9941 16.5 12C17.2425 12 17.955 12.2625 18.5025 12.75C18.765 12.9975 19.125 13.125 19.5 13.125V14.625H19.3275C18.6497 14.5914 18.0039 14.3267 17.4975 13.875C17.2228 13.6309 16.8674 13.4973 16.5 13.5C16.125 13.5 15.765 13.6275 15.5025 13.875C14.9505 14.3637 14.2372 14.6309 13.5 14.625C12.7628 14.6309 12.0495 14.3637 11.4975 13.875C11.2228 13.6309 10.8674 13.4973 10.5 13.5C10.125 13.5 9.765 13.6275 9.5025 13.875C8.95052 14.3637 8.23721 14.6309 7.5 14.625C6.76279 14.6309 6.04948 14.3637 5.4975 13.875C5.22285 13.6309 4.86744 13.4973 4.5 13.5C4.125 13.5 3.765 13.6275 3.5025 13.875C2.95052 14.3637 2.23721 14.6309 1.5 14.625V16.875H1.6425C1.92 16.845 2.1825 16.7475 2.3925 16.59L2.4975 16.5075C3.04837 16.0161 3.7618 15.7462 4.5 15.75C5.2425 15.75 5.9625 16.0125 6.5025 16.5C6.765 16.7475 7.125 16.875 7.5 16.875C7.875 16.875 8.235 16.7475 8.4975 16.5C9.0491 16.0107 9.76266 15.7434 10.5 15.75C11.2425 15.75 11.9625 16.0125 12.5025 16.5C12.765 16.7475 13.125 16.875 13.5 16.875C13.875 16.875 14.235 16.7475 14.4975 16.5C15.0495 16.0113 15.7628 15.7441 16.5 15.75C17.2425 15.75 17.955 16.0125 18.5025 16.5C18.765 16.7475 19.125 16.875 19.5 16.875V18.375H19.3275C18.6497 18.3414 18.0039 18.0767 17.4975 17.625C17.2228 17.3809 16.8674 17.2473 16.5 17.25C16.125 17.25 15.765 17.3775 15.5025 17.625C14.9505 18.1137 14.2372 18.3809 13.5 18.375C12.7628 18.3809 12.0495 18.1137 11.4975 17.625C11.2228 17.3809 10.8674 17.2473 10.5 17.25C10.125 17.25 9.765 17.3775 9.5025 17.625C8.95052 18.1137 8.23721 18.3809 7.5 18.375C6.76279 18.3809 6.04948 18.1137 5.4975 17.625C5.22285 17.3809 4.86744 17.2473 4.5 17.25C4.125 17.25 3.765 17.3775 3.5025 17.625C2.95052 18.1137 2.23721 18.3809 1.5 18.375V19.5H19.5V1.5ZM15 3.75C15.5967 3.75 16.169 3.98705 16.591 4.40901C17.0129 4.83097 17.25 5.40326 17.25 6C17.25 6.59674 17.0129 7.16903 16.591 7.59099C16.169 8.01295 15.5967 8.25 15 8.25C14.4033 8.25 13.831 8.01295 13.409 7.59099C12.9871 7.16903 12.75 6.59674 12.75 6C12.75 5.40326 12.9871 4.83097 13.409 4.40901C13.831 3.98705 14.4033 3.75 15 3.75ZM15 5.25C14.8011 5.25 14.6103 5.32902 14.4697 5.46967C14.329 5.61032 14.25 5.80109 14.25 6C14.25 6.19891 14.329 6.38968 14.4697 6.53033C14.6103 6.67098 14.8011 6.75 15 6.75C15.1989 6.75 15.3897 6.67098 15.5303 6.53033C15.671 6.38968 15.75 6.19891 15.75 6C15.75 5.80109 15.671 5.61032 15.5303 5.46967C15.3897 5.32902 15.1989 5.25 15 5.25Z" fill="#222222"/>
</svg>
