<svg width="24" height="18" viewBox="0 0 24 18" fill="none" xmlns="http://www.w3.org/2000/svg">
<path d="M11.82 12C12.55 12 13.2501 12.29 13.7663 12.8062C14.2825 13.3224 14.5725 14.0225 14.5725 14.7525C14.5725 15.4825 14.2825 16.1826 13.7663 16.6988C13.2501 17.215 12.55 17.505 11.82 17.505C11.09 17.505 10.3899 17.215 9.87369 16.6988C9.35749 16.1826 9.0675 15.4825 9.0675 14.7525C9.0675 14.0225 9.35749 13.3224 9.87369 12.8062C10.3899 12.29 11.09 12 11.82 12ZM11.82 13.5C11.4878 13.5 11.1692 13.632 10.9343 13.8668C10.6995 14.1017 10.5675 14.4203 10.5675 14.7525C10.5675 15.0847 10.6995 15.4033 10.9343 15.6382C11.1692 15.873 11.4878 16.005 11.82 16.005C12.1522 16.005 12.4708 15.873 12.7057 15.6382C12.9405 15.4033 13.0725 15.0847 13.0725 14.7525C13.0725 14.4203 12.9405 14.1017 12.7057 13.8668C12.4708 13.632 12.1522 13.5 11.82 13.5ZM11.82 8.0025C13.0711 8.00282 14.2975 8.35085 15.3623 9.00774C16.4271 9.66462 17.2884 10.6045 17.85 11.7225L16.7175 12.855C16.3356 11.8662 15.6634 11.0161 14.7893 10.4166C13.9151 9.81715 12.88 9.49629 11.82 9.49629C10.76 9.49629 9.72488 9.81715 8.85072 10.4166C7.97657 11.0161 7.30435 11.8662 6.9225 12.855L5.79 11.7225C6.35161 10.6045 7.21289 9.66462 8.27768 9.00774C9.34248 8.35085 10.5689 8.00282 11.82 8.0025ZM11.82 4.005C15.555 4.005 18.8475 5.91 20.775 8.805L19.6875 9.885C18.8589 8.54363 17.7011 7.43638 16.3241 6.66845C14.9471 5.90052 13.3967 5.49741 11.82 5.49741C10.2433 5.49741 8.69287 5.90052 7.31588 6.66845C5.93888 7.43638 4.78109 8.54363 3.9525 9.885L2.865 8.7975C3.84552 7.32047 5.17644 6.10913 6.73899 5.27158C8.30155 4.43403 10.0471 3.99632 11.82 3.9975V4.005ZM11.82 0C16.6575 0 20.955 2.325 23.64 5.925L22.5675 7.005C21.3425 5.29857 19.7288 3.90835 17.8599 2.94936C15.991 1.99037 13.9206 1.49019 11.82 1.49019C9.71941 1.49019 7.64901 1.99037 5.78009 2.94936C3.91118 3.90835 2.29748 5.29857 1.0725 7.005L0 5.9325C2.685 2.3325 6.975 0.00750017 11.82 0.00750017V0Z" fill="#222222"/>
</svg>
